<?xml version="1.0" encoding="UTF-8" standalone="no"?>
<svg
   xmlns:dc="http://purl.org/dc/elements/1.1/"
   xmlns:cc="http://creativecommons.org/ns#"
   xmlns:rdf="http://www.w3.org/1999/02/22-rdf-syntax-ns#"
   xmlns:svg="http://www.w3.org/2000/svg"
   xmlns="http://www.w3.org/2000/svg"
   xmlns:sodipodi="http://sodipodi.sourceforge.net/DTD/sodipodi-0.dtd"
   xmlns:inkscape="http://www.inkscape.org/namespaces/inkscape"
   version="1.1"
   width="929"
   height="306"
   viewBox="158.03 106.79 929 306"
   xml:space="preserve"
   id="svg25"
   sodipodi:docname="built.svg"><metadata
   id="metadata29"><rdf:RDF><cc:Work
       rdf:about=""><dc:format>image/svg+xml</dc:format><dc:type
         rdf:resource="http://purl.org/dc/dcmitype/StillImage" /></cc:Work></rdf:RDF></metadata><sodipodi:namedview
   pagecolor="#ffffff"
   bordercolor="#666666"
   borderopacity="1"
   objecttolerance="10"
   gridtolerance="10"
   guidetolerance="10"
   inkscape:pageopacity="0"
   inkscape:pageshadow="2"
   inkscape:window-width="640"
   inkscape:window-height="480"
   id="namedview27"
   fit-margin-top="50"
   fit-margin-left="50"
   fit-margin-right="50"
   fit-margin-bottom="50" />
<desc
   id="desc2">Created with Fabric.js 5.3.0</desc>
<defs
   id="defs4">
</defs>
<g
   transform="matrix(0.8,0,0,0.8,734.98,259.21)"
   id="base_text">
		<g
   aria-label="Performance"
   id="text8"
   style="font-style:normal;font-weight:normal;font-size:120px;font-family:f7;white-space:pre;opacity:1;fill:#ffffff;fill-rule:nonzero;stroke:none;stroke-width:1;stroke-linecap:butt;stroke-linejoin:miter;stroke-miterlimit:4;stroke-dasharray:none;stroke-dashoffset:0"><path
     d="m -377.34109,-51.128124 h 35.91796 q 5.97657,0 10.95704,1.582031 5.03906,1.523438 8.67187,4.570313 3.69141,2.988281 5.68359,7.5 2.05079,4.511718 2.05079,10.371093 0,4.863282 -1.99219,9.199219 -1.99219,4.277344 -5.625,7.5 -3.63281,3.2226563 -8.73047,5.0976563 -5.03906,1.875 -11.25,1.875 h -15.76172 V 27.621876 h 8.90625 v 10.078125 h -28.82812 V 27.621876 h 8.4375 v -68.613281 h -8.4375 z m 19.92187,10.136719 v 27.949218 h 15.99609 q 3.33985,0 6.09375,-0.878906 2.8125,-0.9375 4.80469,-2.695312 2.05078,-1.757813 3.16406,-4.394532 1.17188,-2.636718 1.17188,-6.09375 0,-6.5625 -3.98438,-10.195312 -3.98437,-3.691406 -12.71484,-3.691406 z"
     id="path31" /><path
     d="m -295.01688,8.7546883 q 0,2.5781247 0.35157,4.7460937 0.41015,2.109375 1.11328,4.042969 2.16797,5.859375 6.91406,8.847656 4.80469,2.929688 10.83984,2.929688 4.7461,0 9.19922,-1.289063 4.51172,-1.347656 9.4336,-4.160156 l 4.39453,7.441406 q -5.97656,4.101563 -12.01172,6.09375 -6.03516,1.992188 -12.53906,1.992188 -6.15235,0 -11.42578,-2.050782 -5.21485,-2.050781 -9.02344,-6.09375 -3.75,-4.042968 -5.91797,-10.078125 -2.10938,-6.035156 -2.10938,-14.0624997 0,-6.50390629 1.81641,-12.2460938 1.81641,-5.8007815 5.39063,-10.0781245 3.63281,-4.335938 8.96484,-6.855469 5.33203,-2.519531 12.42187,-2.519531 6.85547,0 11.42579,2.109375 4.6289,2.050781 7.5,5.507812 2.92968,3.398438 4.39453,7.7929688 1.52343,4.3945312 2.10937,8.96484371 0.29297,2.22656249 0.35156,4.51171879 0.11719,2.2851562 0.11719,4.453125 z m 17.05079,-24.1992183 q -3.8086,0 -6.67969,1.113281 -2.8125,1.054687 -4.80469,3.105469 -1.99219,1.992187 -3.22266,4.9218745 -1.17187,2.9296875 -1.75781,6.56250001 h 31.46485 q -0.23438,-3.39843751 -1.11329,-6.26953121 -0.82031,-2.8710938 -2.57812,-4.9804683 -1.75781,-2.109375 -4.51172,-3.28125 -2.75391,-1.171875 -6.79687,-1.171875 z"
     id="path33" /><path
     d="m -192.82938,-10.171093 h -11.13281 v -3.75 q -1.93359,0 -3.98437,0.761719 -1.99219,0.703125 -3.75,2.226562 -1.75782,1.464844 -3.10547,3.808594 -1.28906,2.2851563 -1.875,5.4492188 V 27.621876 h 10.3125 v 10.078125 h -30.11719 V 27.621876 h 8.37891 l 0.0586,-40.546875 h -8.4375 v -10.078125 h 19.39453 v 8.378906 q 1.05469,-1.875 2.34375,-3.457031 1.34766,-1.640625 2.92969,-2.8125 1.64062,-1.230469 3.57422,-1.875 1.99219,-0.703125 4.27734,-0.703125 3.04688,0 5.74219,0 2.69531,0 5.39062,0.117187 z"
     id="path35" /><path
     d="m -160.19266,-23.003124 h 14.0625 v 8.847656 h -14.0625 v 41.777344 h 9.49219 v 10.078125 h -29.53125 V 27.621876 h 9.14063 v -41.777344 h -10.01954 v -8.847656 h 10.01954 v -9.492188 q 0.11718,-5.273437 1.52343,-9.199218 1.40625,-3.925782 3.98438,-6.5625 2.57812,-2.636719 6.21094,-3.925782 3.63281,-1.289062 8.08593,-1.289062 3.10547,0 5.56641,0.292969 2.46094,0.292968 4.39453,0.820312 1.93359,0.46875 3.39844,1.054688 1.52344,0.585937 2.69531,1.171875 l -3.33984,7.792968 q -1.875,-0.996093 -4.92188,-1.699218 -2.98828,-0.703125 -6.26953,-0.703125 -4.86328,0 -7.67578,3.046875 -2.75391,2.988281 -2.75391,8.847656 z"
     id="path37" /><path
     d="m -137.39969,7.3484383 q 0.0586,-7.20703129 2.28516,-13.125 2.28515,-5.9179683 6.32812,-10.1367183 4.04297,-4.277344 9.60938,-6.5625 5.5664,-2.285157 12.24609,-2.285157 6.73828,0 12.304689,2.285157 5.625,2.285156 9.609375,6.503906 3.984375,4.160156 6.210937,10.0781248 2.226563,5.91796871 2.226563,13.125 0,7.0898442 -2.226563,13.0664062 -2.226562,5.917969 -6.210937,10.195313 -3.984375,4.277343 -9.609375,6.679687 -5.566409,2.34375 -12.304689,2.34375 -6.85547,0 -12.42187,-2.34375 -5.56641,-2.34375 -9.55078,-6.5625 -3.98438,-4.277344 -6.21094,-10.195312 -2.22656,-5.917969 -2.28516,-13.0664067 z m 11.54297,0 q 0,5.2148437 1.46484,9.4335937 1.52344,4.21875 4.10157,7.207031 2.63672,2.929688 6.03515,4.570313 3.45703,1.582031 7.32422,1.582031 4.04297,0 7.500001,-1.582031 3.515625,-1.582031 6.09375,-4.511719 2.578125,-2.988281 4.042969,-7.207031 1.464844,-4.21875 1.464844,-9.4921877 0,-5.5078125 -1.464844,-9.7851563 -1.464844,-4.2773437 -4.042969,-7.1484375 -2.519531,-2.8710935 -6.035156,-4.3359375 -3.515625,-1.464844 -7.558595,-1.464844 -3.86719,0 -7.32422,1.464844 -3.39843,1.464844 -6.03515,4.3359375 -2.57813,2.8710938 -4.10157,7.1484375 -1.46484,4.2773438 -1.46484,9.7851563 z"
     id="path39" /><path
     d="m -21.149689,-10.171093 h -11.132812 v -3.75 q -1.933594,0 -3.984375,0.761719 -1.992188,0.703125 -3.75,2.226562 -1.757813,1.464844 -3.105469,3.808594 -1.289062,2.2851563 -1.875,5.4492188 V 27.621876 h 10.3125 V 37.700001 H -64.802032 V 27.621876 h 8.378906 l 0.05859,-40.546875 h -8.4375 v -10.078125 h 19.394531 v 8.378906 q 1.054687,-1.875 2.34375,-3.457031 1.347656,-1.640625 2.929687,-2.8125 1.640625,-1.230469 3.574219,-1.875 1.992188,-0.703125 4.277344,-0.703125 3.046875,0 5.742187,0 2.695313,0 5.390625,0.117187 z"
     id="path41" /><path
     d="M -8.5520325,-23.003124 H 10.783905 v 7.089844 h 0.117188 q 1.992187,-1.699219 4.160156,-3.164063 2.226562,-1.523437 4.628906,-2.636719 2.402344,-1.113281 4.980469,-1.757812 2.636719,-0.644531 5.449219,-0.644531 6.5625,0 11.308593,2.460937 4.746094,2.402344 7.324219,7.558594 2.226563,-1.992188 4.6875,-3.808594 2.460938,-1.875 5.097656,-3.222656 2.695313,-1.347656 5.625,-2.167969 2.929688,-0.820312 6.09375,-0.820312 4.921875,0 8.847657,1.347656 3.925781,1.347656 6.679687,4.101562 2.753906,2.753907 4.160156,7.089844 1.464844,4.2773438 1.464844,10.1367188 V 27.621876 h 8.4375 V 37.700001 H 71.48703 V 27.621876 h 8.554688 V -0.09296799 q 0,-6.97265621 -3.515625,-10.54687501 -3.515625,-3.632812 -10.136719,-3.632812 -3.925781,0 -8.027344,1.875 -4.101562,1.875 -7.03125,4.7460933 V 27.621876 h 8.378906 V 37.700001 H 31.408905 V 27.621876 h 8.554688 V -0.09296799 q 0,-6.97265621 -3.574219,-10.54687501 -3.515625,-3.632812 -10.136719,-3.632812 -3.808594,0 -7.675781,1.816406 -3.867188,1.816406 -7.324219,4.5117185 V 27.621876 h 8.554688 V 37.700001 H -8.5520325 V 27.621876 h 8.43750003 V -12.924999 H -8.5520325 Z"
     id="path43" /><path
     d="m 147.24875,32.075001 q -3.45703,3.222656 -7.67578,5.273437 -4.16016,2.050782 -9.49219,2.050782 -4.45312,0 -8.20312,-1.40625 -3.69141,-1.40625 -6.38672,-3.808594 -2.69532,-2.460938 -4.21875,-5.683594 -1.46485,-3.222656 -1.46485,-6.855469 0,-3.867187 1.11328,-6.855468 1.17188,-2.988282 3.04688,-5.1562505 1.93359,-2.2265625 4.45312,-3.6914062 2.57813,-1.5234375 5.33204,-2.4023438 2.8125,-0.9375 5.68359,-1.2890625 2.92969,-0.4101562 5.56641,-0.4101562 4.21875,0 7.08984,0.2929687 2.87109,0.234375 5.21484,0.703125 l 0.0586,-4.9804687 q 0,-3.2226563 -0.9375,-5.5664063 -0.9375,-2.4023435 -2.63672,-3.9257815 -1.69922,-1.582031 -4.10156,-2.34375 -2.34375,-0.761718 -5.27344,-0.761718 -2.75391,0 -5.27344,0.410156 -2.51953,0.351562 -4.74609,0.996094 -2.16797,0.585937 -4.04297,1.40625 -1.81641,0.761718 -3.10547,1.640625 l -3.57422,-7.558594 q 2.16797,-1.40625 4.74609,-2.578125 2.57813,-1.230469 5.39063,-2.050781 2.87109,-0.878907 5.80078,-1.347657 2.98828,-0.527343 5.85938,-0.527343 5.27343,0 9.49218,1.289062 4.21875,1.230469 7.14844,3.867188 2.92969,2.636718 4.51172,6.738281 1.58203,4.0429685 1.58203,9.7265623 l -0.0586,30.3515627 h 6.73828 v 10.078125 h -17.63672 z m -14.76563,-1.816406 q 2.16797,0 4.33594,-0.527344 2.16797,-0.527344 4.10156,-1.40625 1.9336,-0.9375 3.57422,-2.109375 1.64063,-1.230469 2.75391,-2.519531 l 0.0586,-13.710938 H 134.6511 q -3.16406,0 -5.80078,0.703125 -2.57812,0.703125 -4.51172,2.050781 -1.875,1.347657 -2.92968,3.339844 -1.05469,1.992188 -1.05469,4.570313 0,2.402343 0.8789,4.21875 0.87891,1.757812 2.46094,2.988281 1.64063,1.171875 3.86719,1.816406 2.22656,0.585938 4.92187,0.585938 z"
     id="path45" /><path
     d="m 217.15109,27.621876 h 8.55469 V -0.09296799 q 0,-6.97265621 -3.57422,-10.54687501 -3.51562,-3.632812 -10.13672,-3.632812 -3.80859,0 -7.67578,1.816406 -3.86719,1.816406 -7.32422,4.5117185 V 27.621876 h 8.55469 V 37.700001 H 177.19016 V 27.621876 h 8.4375 v -40.546875 h -8.4375 v -10.078125 h 19.33593 v 7.148437 h 0.11719 q 1.93359,-1.699218 4.10156,-3.222656 2.22657,-1.523437 4.62891,-2.636719 2.40234,-1.113281 4.98047,-1.757812 2.63672,-0.644531 5.50781,-0.644531 4.86328,0 8.78906,1.347656 3.92578,1.347656 6.67969,4.101562 2.75391,2.753907 4.21875,7.089844 1.52344,4.2773438 1.52344,10.1367188 V 27.621876 h 8.4375 v 10.078125 h -28.35938 z"
     id="path47" /><path
     d="m 301.05734,-6.8312492 q -2.46093,-4.3945308 -6.26953,-6.4453128 -3.75,-2.050781 -8.73047,-2.050781 -3.80859,0 -7.14843,1.582031 -3.33985,1.582032 -5.85938,4.511719 -2.46094,2.9296875 -3.92578,7.1484375 -1.40625,4.1601563 -1.40625,9.3164063 0,5.0976562 1.40625,9.1992192 1.46484,4.101562 3.98437,7.03125 2.51954,2.871093 5.80079,4.453125 3.33984,1.523437 7.14843,1.523437 5.625,0 9.78516,-2.695312 4.16016,-2.753907 6.62109,-8.027344 l 9.02344,4.453125 q -1.75781,3.75 -4.33594,6.738281 -2.57812,2.988281 -5.85937,5.097656 -3.22266,2.109375 -7.14844,3.222657 -3.86719,1.171875 -8.20312,1.171875 -6.32813,0 -11.71875,-2.34375 -5.33204,-2.402344 -9.25782,-6.679688 -3.86718,-4.277344 -6.03515,-10.195312 -2.16797,-5.917969 -2.16797,-12.9492192 0,-7.03125004 2.28515,-12.9492188 2.28516,-5.917969 6.26954,-10.136719 3.98437,-4.277343 9.3164,-6.679687 5.33203,-2.402344 11.42578,-2.402344 5.74219,0 10.83985,1.992188 5.15625,1.992187 9.02343,6.035156 h 6.15235 v 10.0781248 z"
     id="path49" /><path
     d="m 333.04953,8.7546883 q 0,2.5781247 0.35156,4.7460937 0.41016,2.109375 1.11328,4.042969 2.16797,5.859375 6.91407,8.847656 4.80468,2.929688 10.83984,2.929688 4.74609,0 9.19922,-1.289063 4.51172,-1.347656 9.43359,-4.160156 l 4.39453,7.441406 q -5.97656,4.101563 -12.01171,6.09375 -6.03516,1.992188 -12.53907,1.992188 -6.15234,0 -11.42578,-2.050782 -5.21484,-2.050781 -9.02344,-6.09375 -3.75,-4.042968 -5.91796,-10.078125 -2.10938,-6.035156 -2.10938,-14.0624997 0,-6.50390629 1.81641,-12.2460938 1.8164,-5.8007815 5.39062,-10.0781245 3.63281,-4.335938 8.96485,-6.855469 5.33203,-2.519531 12.42187,-2.519531 6.85547,0 11.42578,2.109375 4.62891,2.050781 7.5,5.507812 2.92969,3.398438 4.39453,7.7929688 1.52344,4.3945312 2.10938,8.96484371 0.29297,2.22656249 0.35156,4.51171879 0.11719,2.2851562 0.11719,4.453125 z M 350.10031,-15.44453 q -3.80859,0 -6.67969,1.113281 -2.8125,1.054687 -4.80468,3.105469 -1.99219,1.992187 -3.22266,4.9218745 -1.17187,2.9296875 -1.75781,6.56250001 h 31.46484 q -0.23437,-3.39843751 -1.11328,-6.26953121 -0.82031,-2.8710938 -2.57812,-4.9804683 -1.75782,-2.109375 -4.51172,-3.28125 -2.75391,-1.171875 -6.79688,-1.171875 z"
     id="path51" /></g>
</g><g
   transform="matrix(0.8,0,0,0.8,381.62,259.21)"
   id="separator_line">
<path
   id="rect11"
   style="opacity:1;fill:#ffffff;fill-rule:nonzero;stroke:none;stroke-width:1;stroke-linecap:butt;stroke-linejoin:miter;stroke-miterlimit:4;stroke-dasharray:none;stroke-dashoffset:0"
   d="m -2.5,-67.800003 h 5 V 67.800003 h -5 z" />
</g><g
   transform="matrix(0.84,0,0,0.84,271.03,258.01)"
   id="main_icon">
<g
   id="g22">
		<g
   transform="matrix(0.05,0,0,-0.05,-21.18,-27.72)"
   id="g16">
<path
   style="opacity:1;fill:#ffffff;fill-rule:nonzero;stroke:none;stroke-width:1;stroke-linecap:butt;stroke-linejoin:miter;stroke-miterlimit:4;stroke-dasharray:none;stroke-dashoffset:0"
   transform="translate(-4757.07,-5778.05)"
   d="m 5010,7644 c -151,-19 -372,-85 -495,-146 -450,-226 -767,-665 -831,-1150 -22,-168 -15,-445 15,-573 80,-344 224,-602 530,-954 106,-121 220,-264 241,-301 22,-39 15,10 -25,170 -74,292 -98,513 -84,782 13,244 45,398 130,612 71,178 163,331 298,496 91,111 391,424 399,416 5,-6 -25,-43 -231,-287 -76,-90 -168,-208 -204,-262 -132,-196 -227,-417 -282,-657 -27,-113 -40,-226 -48,-395 -14,-323 62,-805 176,-1120 26,-71 63,-183 82,-247 19,-65 36,-118 39,-118 3,0 5,141 5,313 1,282 3,325 24,442 75,423 235,762 547,1160 330,421 423,576 495,825 53,183 67,408 35,575 -21,109 -81,299 -100,314 -22,19 -124,51 -246,77 -89,20 -151,26 -275,29 -88,2 -176,1 -195,-1 z"
   stroke-linecap="round"
   id="path14" />
</g>
		<g
   transform="matrix(0.05,0,0,-0.05,30.38,20.43)"
   id="g20">
<path
   style="opacity:1;fill:#ffffff;fill-rule:nonzero;stroke:none;stroke-width:1;stroke-linecap:butt;stroke-linejoin:miter;stroke-miterlimit:4;stroke-dasharray:none;stroke-dashoffset:0"
   transform="translate(-5804.46,-4804.97)"
   d="m 6504,6712 c 0,-148 -4,-178 -27,-262 -39,-145 -87,-247 -172,-372 -131,-191 -266,-337 -510,-553 -330,-292 -548,-558 -699,-855 -144,-283 -204,-557 -213,-965 -4,-200 -1,-276 26,-589 18,-199 36,-365 42,-373 9,-10 61,-13 235,-13 258,0 244,-6 244,102 0,228 97,777 185,1050 120,372 241,579 600,1018 202,246 276,353 346,497 192,395 218,806 77,1213 -29,83 -117,270 -128,270 -3,0 -5,-75 -6,-168 z M 5392,4508 c -194,-324 -283,-628 -299,-1020 -3,-91 -10,-158 -16,-158 -6,0 -8,109 -4,298 6,338 27,505 93,745 56,201 47,189 136,192 42,1 87,9 104,18 16,8 31,14 33,12 1,-2 -19,-41 -47,-87 z"
   stroke-linecap="round"
   id="path18" />
</g>
</g>
</g></svg>
